<svg xmlns="http://www.w3.org/2000/svg" viewBox="0 0 800 400" width="800" height="400"><rect fill="#0a1420" width="800" height="400"/><path fill="#1a2e20" stroke="rgba(40,90,60,0.4)" stroke-width="0.5" d="M268,378L266,380L262,380L257,380L254,379L258,378L262,379L264,378L268,378ZM46,377L42,377L39,376L36,375L38,374L42,374L44,375L46,376ZM300,373L302,374L303,376L304,378L300,379L297,379L292,380L288,380L283,380L280,379L285,378L287,377L289,375L292,373L296,373L300,373ZM131,363L134,364L136,363L133,365L130,364L128,364L131,363ZM121,363L124,364L120,364L117,363L119,363L121,363ZM180,360L182,360L185,360L182,361L179,361L176,361L174,361L174,359L177,360L180,360ZM248,358L248,360L245,361L242,361L239,361L235,361L233,360L236,358L240,358L241,356L241,354L244,353L246,355L247,357ZM270,343L267,343L265,343L262,344L261,346L260,348L258,348L256,349L254,350L255,352L258,353L260,354L261,356L263,357L264,360L264,362L265,364L262,365L259,366L257,367L254,368L251,368L248,369L245,369L243,370L240,370L236,370L232,370L228,370L232,372L235,372L234,374L230,374L227,374L227,376L229,377L233,378L237,379L241,379L244,380L248,381L254,381L259,382L263,382L267,383L270,384L273,384L277,383L281,383L285,382L289,382L295,382L300,382L305,382L309,381L315,381L319,380L324,380L328,379L333,379L337,379L335,378L334,376L330,376L325,377L321,377L320,374L325,373L328,373L331,372L334,371L336,370L339,370L342,370L347,369L350,369L353,369L356,368L358,368L361,367L363,366L365,366L363,364L366,363L368,362L370,362L373,361L376,359L380,358L384,359L387,358L390,359L393,358L396,358L399,358L402,358L404,358L407,358L409,357L411,357L414,357L416,356L419,356L421,356L423,357L427,357L430,355L433,356L435,356L438,355L440,355L443,355L445,356L448,356L450,357L453,357L455,357L458,357L460,357L462,356L465,356L467,355L469,355L471,355L473,354L475,352L478,353L480,354L483,354L486,355L488,355L491,353L493,352L495,352L498,352L500,351L502,351L505,350L507,350L509,349L511,349L513,349L515,347L517,347L519,346L521,346L523,346L525,347L527,347L529,349L531,350L533,350L535,350L537,351L539,351L542,350L544,350L547,351L549,351L551,351L553,351L555,353L555,355L552,355L551,357L553,357L552,359L555,361L558,360L560,358L562,357L564,355L566,355L568,355L570,355L573,354L576,352L578,351L580,351L582,350L584,349L586,350L588,349L590,349L593,349L596,347L597,349L599,349L601,349L604,349L606,349L608,349L611,349L613,350L615,349L617,349L619,349L622,349L624,348L626,347L629,346L632,347L636,349L638,349L640,349L643,349L645,348L647,348L651,347L654,347L657,348L659,348L661,349L664,349L666,349L669,349L672,348L674,348L676,348L678,348L680,348L682,348L684,348L686,348L688,348L691,348L693,348L695,348L697,347L699,347L700,345L702,346L703,348L705,349L708,349L711,349L713,348L716,348L718,348L721,349L723,349L725,349L726,351L728,351L731,352L734,352L737,353L739,353L741,353L743,352L745,353L747,354L751,354L754,355L757,356L759,357L762,357L764,357L766,357L769,357L772,357L774,358L777,358L779,359L779,361L777,363L773,364L769,365L767,367L765,368L763,369L763,371L765,372L766,374L770,374L767,375L764,376L759,376L757,378L755,380L758,381L761,382L764,383L767,384L770,384L775,385L783,387L785,388L791,387L796,388L800,388L800,400L0,400L0,388L2,387L6,388L8,387L12,388L15,387L22,386L24,387L29,388L35,389L40,389L49,390L55,389L65,390L70,390L76,390L82,389L74,388L67,387L65,386L59,386L60,384L60,382L57,382L55,381L51,380L57,380L62,380L65,381L69,380L73,379L75,379L71,377L68,376L63,376L59,376L55,376L53,375L51,374L49,373L48,371L51,372L55,372L58,371L60,372L64,372L67,372L69,371L72,370L75,370L74,368L78,367L83,367L85,367L88,367L91,367L94,366L97,366L100,365L103,365L106,365L109,366L112,365L115,365L118,365L121,366L124,366L128,366L131,366L134,366L136,365L139,365L142,365L144,365L147,364L149,365L153,365L155,366L158,366L161,367L164,367L167,367L170,367L173,367L176,367L178,366L176,366L172,365L170,363L170,361L174,362L177,362L180,362L182,363L186,364L189,363L192,363L195,363L197,363L200,363L202,361L204,362L206,363L209,362L211,363L214,363L216,364L219,364L221,363L224,363L227,363L229,364L231,364L234,364L236,364L238,363L241,363L244,363L247,362L249,362L251,360L250,358L248,357L248,355L249,353L250,351L251,349L253,347L255,346L257,346L259,344L262,344L264,343L267,342L269,342L272,341L270,343ZM249,320L252,321L255,322L252,323L250,323L246,323L242,322L239,321L237,320L234,317L236,318L239,319L242,320L244,318L246,317L248,318L249,320ZM270,314L272,315L268,316L265,316L267,314L269,314ZM556,310L553,311L553,309L555,309L557,309ZM723,291L725,291L728,291L730,291L730,293L729,296L726,297L723,295L723,293L722,291ZM784,291L787,291L787,293L785,295L785,297L783,297L781,298L780,300L779,302L777,303L774,304L770,303L771,300L774,298L777,297L779,296L780,294L782,292L784,290ZM788,280L790,283L790,281L791,283L793,284L796,284L796,286L794,287L793,289L791,292L789,293L789,290L786,288L788,286L788,283L787,281L785,278L787,278L788,280ZM771,249L769,249L766,247L765,245L767,245L768,247L770,248ZM511,230L512,233L512,235L510,235L511,237L510,240L509,242L508,246L507,250L506,253L505,255L503,256L501,257L498,256L497,254L497,252L496,249L497,247L499,245L499,243L498,241L498,239L498,237L500,236L502,235L504,234L506,232L506,230L509,229L509,227L511,229ZM719,231L721,231L723,233L723,236L724,238L725,241L728,243L731,245L732,247L733,250L735,250L735,252L737,254L740,256L740,258L740,261L741,264L740,267L740,269L739,272L737,273L736,275L735,278L734,281L733,283L730,284L728,285L726,286L723,286L722,284L719,286L717,286L715,285L713,284L711,283L711,281L709,279L707,279L707,276L706,278L704,278L706,276L706,273L704,275L702,278L700,277L701,275L699,274L698,272L696,271L694,271L692,270L688,270L685,271L682,272L680,272L678,273L676,273L675,275L673,275L670,275L668,275L666,276L664,277L662,278L659,278L657,276L657,274L657,272L657,270L656,268L656,265L655,263L653,261L652,259L652,257L654,258L653,256L652,254L653,252L653,250L654,248L654,250L657,248L659,246L661,246L663,245L665,244L669,244L670,242L672,240L672,238L673,236L674,238L675,236L678,234L679,232L681,231L684,232L687,233L689,230L690,228L692,227L695,227L693,225L696,225L699,227L701,227L703,227L704,229L702,230L702,232L703,235L705,235L707,237L709,238L712,239L713,237L714,235L715,233L714,230L715,228L715,226L717,224L717,226L719,229L719,231ZM668,223L664,221L666,221L668,221L668,223ZM677,223L675,223L676,221L678,220L680,219L682,218L680,220L678,221L677,223ZM662,218L664,218L662,220L659,220L661,219ZM673,218L669,220L666,220L668,218L670,219L673,218ZM641,215L646,215L650,215L651,217L654,217L657,219L655,219L652,219L650,219L648,218L646,218L643,217L641,217L637,216L634,215L636,213L638,213L640,214ZM746,215L744,213L743,211L745,212L746,214ZM738,212L736,213L734,214L731,213L733,212L735,212L737,211L737,209L739,210L738,212ZM690,207L691,209L689,208L687,207L684,208L685,206L687,206L690,207ZM740,210L739,208L736,207L738,207L740,209ZM698,203L699,206L701,207L703,205L705,204L707,204L709,205L711,205L713,206L717,207L721,209L723,210L724,212L728,214L727,216L729,218L731,220L733,222L735,223L733,224L731,223L729,223L727,221L725,218L722,217L720,218L718,218L719,220L717,221L713,220L711,218L709,218L706,219L707,217L708,214L707,212L702,210L700,210L697,208L695,208L693,206L696,205L694,205L691,203L693,202L698,202ZM678,197L677,199L675,199L673,199L669,199L667,199L667,201L669,203L674,201L672,203L670,204L672,207L674,210L674,212L672,212L673,210L671,211L670,209L669,206L667,207L668,209L668,212L666,213L666,210L666,208L664,206L665,203L666,200L669,197L673,198L676,198L678,196ZM686,197L686,199L684,201L683,198L684,196L686,197ZM635,213L633,213L631,211L628,209L625,206L623,201L621,200L620,198L619,196L617,195L616,193L614,191L612,189L617,188L619,191L622,193L624,195L626,195L628,197L629,199L631,200L630,202L632,202L632,204L635,205L636,207L635,210L635,213ZM662,196L664,198L662,198L661,200L661,202L659,203L659,206L658,209L655,209L653,208L649,208L647,207L645,207L645,204L643,203L642,201L642,199L642,197L644,196L647,196L647,194L651,193L653,191L655,189L657,188L658,186L660,185L662,187L665,188L663,189L662,191L661,193L662,195ZM681,181L681,183L680,186L680,184L679,187L676,186L676,184L674,184L671,185L672,182L674,181L677,181L679,180L679,178L681,180ZM580,186L577,185L577,182L578,178L580,179L581,181L582,183L581,186ZM265,178L263,178L263,176L265,176L265,178ZM676,177L674,179L672,178L673,176L676,175L676,177ZM663,179L660,181L663,178L666,175L666,177L663,179ZM671,174L674,174L673,176L671,177L671,175ZM679,173L680,175L678,175L678,177L676,174L678,175L676,172L678,172ZM670,159L672,159L672,162L672,164L670,165L671,168L673,168L675,169L675,171L673,170L671,169L669,170L668,168L666,166L666,164L668,161L668,159L670,159ZM229,160L227,160L229,159L231,160L229,160ZM239,156L241,156L243,156L245,156L246,158L248,159L246,159L244,159L242,159L241,161L239,160L237,160L235,159L237,159L239,159L238,157ZM645,158L643,160L641,159L641,157L645,155L647,156L645,158ZM54,158L53,156L55,155L56,157L54,158ZM223,149L226,150L229,152L231,153L233,154L235,155L233,156L230,156L227,156L229,155L226,154L225,152L222,151L218,151L216,150L214,151L212,152L213,150L215,149L217,149L219,149L221,149L223,149ZM669,149L668,151L667,149L668,145L670,144L671,146L669,149ZM699,124L698,126L696,126L694,127L695,124L697,125L699,124ZM477,121L475,122L473,123L473,121L475,121L477,121ZM453,121L456,121L458,122L455,122L452,122ZM434,115L434,117L434,119L432,118L428,116L431,115L433,115ZM420,108L422,110L421,113L419,113L419,110L420,108ZM713,117L712,119L712,122L709,123L705,123L702,126L700,125L700,123L696,124L694,125L691,125L693,126L692,130L690,131L690,128L688,128L688,126L690,125L693,123L695,121L699,121L702,121L704,117L709,116L711,112L711,110L712,108L714,108L715,111L715,113L713,115L713,117ZM421,106L421,108L419,106L421,104L421,106ZM720,102L723,101L723,104L720,104L718,107L715,105L713,108L711,108L711,105L714,104L715,101L715,99L718,101L720,102ZM259,97L262,97L260,98L257,97L258,95L259,97ZM263,91L259,90L257,89L260,90L263,90ZM126,92L124,93L121,91L118,90L115,89L115,87L117,88L121,88L122,90L125,91ZM275,87L274,89L277,89L279,90L281,91L282,93L282,96L280,96L280,94L277,96L275,94L273,94L268,94L268,92L270,91L273,87L276,85L275,87ZM105,80L107,80L107,82L108,84L106,83L104,81ZM719,87L721,91L718,90L717,94L719,96L717,96L716,98L715,96L716,94L715,91L716,87L715,85L715,82L717,81L716,79L718,81L718,83L718,85L719,87ZM385,84L381,85L378,85L380,83L378,80L381,79L383,77L385,77L387,79L387,82L385,84ZM60,73L58,74L56,72L58,72L61,71L60,73ZM393,70L391,72L393,72L396,72L395,74L393,76L395,76L398,79L400,81L404,83L402,85L401,87L398,87L394,88L392,88L390,88L388,89L390,86L392,86L389,85L391,84L389,83L390,81L393,81L392,79L389,78L389,76L387,75L387,72L389,70L391,70L393,70ZM218,61L215,62L213,61L215,60L218,60ZM18,58L20,59L23,59L25,59L23,60L21,59L19,59ZM211,54L214,55L216,56L219,57L222,58L220,59L217,59L215,58L213,59L210,60L206,59L208,58L208,56L209,54L211,54ZM368,52L367,54L370,55L367,57L360,58L356,59L349,58L352,57L347,56L351,55L346,54L351,52L354,54L358,53L360,53L364,52L368,52ZM231,51L229,51L229,49L231,48L233,49L231,51ZM11,52L13,53L12,51L18,51L22,53L20,54L17,55L17,57L14,57L12,56L9,56L6,54L4,55L2,54L0,54L0,56L0,47L5,48L11,51ZM187,46L183,47L181,47L178,46L180,45L182,44L184,45L186,46ZM3,42L0,43L0,41L2,41L5,42L3,42ZM199,46L199,48L202,46L204,48L206,51L208,49L210,47L210,45L213,45L216,45L219,46L218,49L219,51L215,52L212,53L209,52L207,55L203,58L200,58L198,59L196,60L193,62L191,65L190,69L193,69L194,71L195,73L198,73L202,74L204,75L206,76L209,76L211,77L215,77L217,77L217,79L217,82L219,84L222,86L224,85L225,83L224,80L226,77L229,76L230,74L228,71L226,69L228,67L227,65L226,62L228,61L232,62L234,62L236,61L238,62L241,63L245,64L245,66L246,69L248,69L250,71L253,69L255,67L258,68L261,71L264,73L263,75L266,76L268,77L271,78L273,79L275,81L276,84L273,86L269,87L267,88L263,89L258,88L255,88L252,88L251,90L248,91L245,94L242,96L244,96L247,93L252,91L255,91L257,92L255,93L256,96L260,98L263,98L266,96L267,98L264,99L259,101L257,102L255,103L253,103L253,101L257,99L253,99L251,100L249,101L247,102L244,103L243,105L243,107L245,107L243,108L240,108L238,108L236,109L239,109L237,110L235,110L235,112L233,113L233,115L231,117L231,115L230,113L230,115L231,118L232,121L230,123L228,123L227,125L225,125L222,128L220,129L219,132L220,135L221,137L222,140L222,142L221,144L219,143L217,141L216,139L216,137L216,135L214,133L211,134L209,133L205,133L202,133L202,135L200,135L198,135L196,134L194,134L191,134L188,136L185,137L184,139L184,141L184,143L183,146L183,149L183,151L184,154L185,156L187,158L189,159L192,159L194,159L197,158L199,156L199,154L201,153L203,152L205,152L207,152L207,154L205,156L205,158L204,160L204,162L203,164L205,165L207,165L209,165L211,165L213,165L215,166L215,168L214,170L215,172L214,174L214,176L216,178L217,180L219,180L221,180L223,179L226,179L228,181L231,179L232,176L234,175L237,175L239,174L241,172L241,174L241,176L240,178L241,180L242,178L241,176L244,175L245,173L245,175L247,175L248,177L250,177L253,176L256,178L257,176L260,176L262,176L261,178L263,178L265,179L265,181L267,181L269,182L270,184L272,186L276,187L278,187L280,187L282,188L285,190L287,192L288,196L289,198L287,200L292,201L292,203L294,201L297,202L300,203L301,205L304,205L308,206L311,206L314,208L317,211L319,211L321,211L322,215L322,220L318,225L316,227L315,229L313,231L314,235L313,238L313,240L312,244L309,246L309,249L307,250L304,251L301,252L299,253L297,254L294,255L292,258L292,260L292,263L290,265L287,269L285,271L283,274L281,275L278,278L276,277L273,277L270,275L270,277L273,278L273,280L274,282L272,285L268,286L264,287L261,286L262,288L262,290L258,291L256,291L256,293L258,293L259,295L257,295L255,297L255,299L252,300L250,301L250,303L252,305L254,305L253,307L251,308L249,311L247,312L247,315L249,316L246,316L243,318L242,320L239,319L236,317L233,316L233,313L232,308L233,306L235,304L232,304L234,302L235,298L237,299L238,294L236,296L236,293L236,289L237,287L237,285L236,283L239,279L240,275L241,272L241,269L241,267L241,264L242,261L243,257L244,253L244,248L244,244L244,241L241,239L237,236L233,234L231,233L230,231L229,227L226,223L224,219L223,216L221,215L219,214L219,211L220,209L222,208L223,206L221,206L221,204L220,202L222,199L225,197L225,195L227,194L229,191L228,188L228,185L226,183L226,181L224,180L222,181L222,183L220,184L218,182L216,182L214,181L214,179L212,179L210,178L210,176L208,174L206,172L206,170L203,171L200,170L197,169L195,168L193,165L191,165L188,164L185,165L182,164L180,163L178,163L176,162L174,161L172,160L170,159L167,157L165,155L166,153L165,151L164,149L162,147L160,145L157,143L157,141L155,140L154,138L152,137L151,135L149,133L149,131L147,130L145,129L145,131L145,133L148,135L149,137L150,139L152,141L153,143L154,145L156,147L156,149L153,147L151,145L151,143L149,142L147,140L144,138L146,138L145,135L143,134L142,131L140,128L138,125L135,124L133,123L130,120L128,117L127,115L125,113L124,110L124,107L123,105L124,103L125,99L124,96L124,94L123,92L126,93L128,95L128,93L127,91L122,89L117,87L116,85L113,83L113,81L110,79L109,77L107,77L106,75L103,73L102,71L100,71L96,71L94,70L89,68L87,67L83,66L80,67L76,66L73,65L71,65L71,67L67,67L65,68L63,69L63,67L64,65L66,64L62,65L61,67L58,68L57,71L55,72L53,72L49,75L45,77L42,77L39,78L34,79L36,78L38,77L40,76L43,76L47,73L50,72L50,70L48,70L45,69L41,70L40,68L36,67L34,66L33,64L31,63L34,61L36,60L38,60L41,59L43,58L41,57L43,56L41,56L39,57L37,57L33,57L30,56L26,54L30,53L35,52L41,53L39,52L36,51L32,49L29,48L31,47L35,47L37,46L40,44L42,43L47,42L49,43L52,41L55,42L57,43L62,43L65,43L67,43L72,44L76,44L78,44L81,44L84,45L87,45L91,46L94,47L97,47L99,46L101,45L105,46L108,45L112,44L115,44L117,44L121,46L124,44L124,46L127,45L130,45L133,46L139,47L142,47L144,47L147,48L144,49L148,50L154,49L156,49L158,50L160,49L158,48L160,47L162,47L164,47L166,48L168,49L171,49L175,50L178,49L181,49L183,48L186,48L186,50L188,49L190,49L191,47L188,45L186,44L186,42L188,40L191,41L194,42L197,44L195,45L199,46ZM146,38L150,38L153,39L156,38L158,39L160,41L159,38L161,37L163,38L166,39L167,41L172,43L176,44L172,46L168,47L165,46L162,46L158,47L151,48L148,48L144,46L142,46L139,45L141,44L144,44L147,44L150,44L146,43L141,43L138,43L142,42L139,42L135,41L137,39L144,37L146,38ZM168,37L166,38L162,37L166,36L168,37ZM230,38L228,38L226,38L223,38L220,37L227,36L230,38ZM208,37L209,39L211,37L217,36L221,38L221,40L225,39L227,38L232,39L235,41L239,41L242,42L247,43L249,44L251,46L247,47L252,49L256,49L259,51L263,51L262,53L258,56L255,55L252,52L249,53L251,55L254,56L256,59L256,61L253,60L247,58L250,60L253,62L247,61L242,60L239,59L237,57L234,56L227,57L225,57L227,55L231,55L236,55L236,53L239,50L237,49L234,48L229,47L231,46L228,45L226,45L223,45L219,45L211,45L207,44L203,44L201,43L203,42L200,42L200,39L201,37L204,37L209,36ZM177,36L180,36L184,36L182,38L185,39L185,41L181,42L179,41L172,39L177,38L174,37L177,36ZM719,37L716,37L711,37L713,36L716,36L719,37ZM193,38L191,40L188,40L187,38L188,36L190,35L195,35L199,36L196,38L193,38ZM132,41L126,42L120,40L123,38L125,36L122,35L130,35L133,35L139,35L141,36L143,37L141,37L135,39L132,40ZM735,33L732,34L729,34L725,33L729,33L735,33ZM192,33L188,34L185,33L189,32L191,33ZM722,32L721,34L712,34L709,34L704,33L706,31L709,31L714,31L722,32ZM181,30L183,31L182,33L178,34L176,33L172,32L172,30L174,30L178,30L181,30ZM160,31L162,31L165,31L164,33L156,34L151,35L147,35L152,33L142,33L138,33L141,31L144,30L150,31L154,32L158,32L154,30L156,29L159,30ZM528,43L519,43L515,41L517,39L521,36L519,36L524,34L529,32L536,31L543,30L547,29L551,29L553,30L544,32L537,33L530,35L527,37L523,39L524,41L528,43ZM190,29L192,29L196,29L198,30L200,31L202,32L205,32L208,32L212,32L216,32L220,32L222,33L218,35L215,34L209,35L204,35L201,34L195,34L194,32L191,30L187,30L184,29L190,29ZM142,27L141,29L138,30L134,31L130,31L127,31L131,29L135,28L139,28L142,27ZM638,29L640,30L647,30L652,31L654,31L653,33L651,33L645,34L643,35L646,35L649,36L651,36L653,36L657,36L664,36L664,38L674,38L674,36L679,37L682,37L686,38L685,40L688,42L692,43L694,40L697,41L701,41L706,41L711,41L709,39L712,38L732,40L734,41L740,43L749,42L753,43L755,43L755,45L758,46L761,45L765,45L769,46L773,45L777,47L780,47L778,45L786,45L790,45L797,46L800,47L800,56L797,57L794,56L796,58L798,59L799,61L794,61L788,63L786,63L783,65L779,66L775,65L770,67L766,67L763,67L760,71L763,72L762,75L760,75L759,77L756,79L756,82L752,82L752,85L748,87L748,85L747,82L745,77L746,74L748,73L748,71L752,71L756,68L760,66L764,64L765,61L763,61L761,63L756,65L754,63L748,63L743,67L745,69L740,69L736,69L733,67L730,69L723,68L716,69L709,73L700,78L704,79L707,81L708,79L711,80L714,82L714,84L712,86L712,89L711,92L708,96L704,100L701,102L700,104L697,105L695,105L691,105L689,107L688,109L686,111L684,111L683,113L685,114L687,117L688,121L685,122L683,123L681,124L681,122L680,118L682,118L680,116L678,116L678,114L679,112L677,112L673,112L671,113L669,114L670,112L671,110L668,110L666,111L664,113L662,113L662,115L664,116L666,117L668,116L670,117L672,117L669,119L666,121L667,124L668,126L669,128L671,130L669,132L671,134L671,136L669,137L668,140L666,143L664,145L661,148L658,149L655,150L653,150L649,152L646,152L645,155L644,153L641,152L637,154L635,156L635,158L637,160L639,163L641,164L642,166L643,170L643,174L641,176L638,177L636,179L634,181L633,179L632,177L630,176L628,173L626,172L624,172L624,170L622,170L622,173L621,176L620,178L622,180L623,182L624,185L626,185L629,188L630,191L630,194L632,196L630,197L628,196L625,194L624,191L623,189L623,187L622,185L620,182L618,181L619,178L619,176L619,173L619,171L617,167L617,164L616,162L614,163L612,165L609,164L610,162L610,160L608,157L605,154L605,152L603,149L601,149L601,151L599,151L596,152L593,152L593,154L589,157L587,159L585,161L583,162L582,164L580,165L578,165L578,169L578,171L577,173L577,177L575,179L573,182L570,180L569,177L568,175L566,172L566,169L563,164L562,160L562,157L562,155L561,153L558,154L554,151L554,149L552,147L550,147L549,145L547,143L543,144L540,144L537,144L532,144L530,143L528,143L527,140L524,140L522,141L519,140L517,139L514,138L513,136L511,133L509,133L507,133L507,135L508,137L510,139L511,141L512,143L513,145L513,143L515,143L514,145L515,147L517,146L519,146L522,145L523,143L525,142L525,145L528,147L531,148L532,150L532,152L530,155L528,156L528,158L526,159L524,160L523,162L521,162L519,163L516,164L514,166L510,167L508,169L505,170L502,170L500,171L498,172L496,171L496,169L495,167L495,165L495,163L494,161L492,159L491,157L489,155L487,153L487,151L486,147L484,146L483,144L481,143L481,141L479,139L477,138L477,136L478,134L477,137L475,139L474,137L472,134L473,136L474,138L476,142L477,144L479,147L479,149L482,151L483,153L482,156L483,159L485,160L487,163L487,165L492,168L494,170L496,172L495,174L497,175L498,177L501,176L504,176L506,175L508,175L511,174L513,173L513,175L513,177L512,180L511,182L510,185L508,188L506,191L503,194L501,195L498,198L496,199L493,202L492,204L490,206L488,208L488,210L486,213L488,215L487,217L487,219L489,222L490,224L490,226L490,228L490,232L490,234L489,236L486,238L483,239L481,241L478,243L477,246L479,249L479,251L479,253L476,255L473,256L473,258L472,261L472,263L470,265L468,268L464,271L463,273L461,274L459,275L457,275L455,276L452,275L450,275L448,276L446,276L444,277L442,277L441,275L440,272L440,270L439,268L438,266L436,264L435,262L434,260L433,258L433,256L432,253L432,250L431,248L430,246L429,244L428,242L426,240L426,238L426,235L427,233L428,230L430,228L431,225L430,223L429,220L429,217L428,215L427,213L426,211L425,209L422,207L421,205L420,202L421,199L421,197L421,195L422,193L420,191L419,189L417,190L415,191L413,191L412,189L410,186L408,186L406,186L404,186L402,187L399,188L396,190L394,189L391,188L387,189L385,190L383,190L380,189L378,188L376,186L374,185L372,184L371,182L371,180L369,178L367,176L365,175L364,173L363,171L362,168L363,165L363,163L364,160L364,158L364,156L363,154L362,152L364,150L364,147L366,146L367,144L368,142L371,139L374,137L376,136L379,133L378,131L379,129L381,126L383,125L385,124L386,122L388,121L390,121L392,121L394,122L397,121L400,120L403,119L407,118L411,118L414,118L416,118L419,118L421,117L423,117L425,118L424,120L424,123L423,125L425,126L428,127L431,127L434,128L435,130L437,131L440,132L442,133L445,131L444,129L446,127L448,127L451,127L453,129L455,129L459,130L461,130L463,131L466,131L469,130L471,131L473,131L475,131L477,130L478,127L479,125L480,123L480,121L480,119L477,118L476,120L472,120L470,119L468,118L466,120L464,118L461,119L460,116L458,115L460,113L458,112L461,110L464,110L465,108L469,109L472,107L474,107L478,107L482,108L485,109L488,109L490,109L492,108L492,105L490,104L486,102L483,101L482,99L485,97L487,95L485,95L483,96L480,96L478,97L478,99L481,99L478,100L475,101L472,99L475,98L471,97L468,96L468,98L466,99L464,100L463,103L461,105L462,107L464,108L461,109L459,111L458,109L455,109L453,110L451,110L451,112L452,114L453,116L451,116L451,119L448,118L447,116L446,114L445,112L443,111L443,109L443,107L441,106L439,105L436,103L434,102L433,100L431,100L429,98L427,99L427,101L430,103L431,105L434,107L436,107L439,109L441,110L441,112L439,110L437,110L437,112L438,114L436,116L435,114L435,112L433,111L431,109L429,108L427,107L425,106L423,105L423,102L420,101L417,103L415,104L410,104L407,104L407,106L405,108L402,109L400,111L399,113L399,115L397,117L395,119L392,119L390,118L388,120L386,119L383,118L381,118L381,116L379,115L379,112L381,109L380,107L380,105L382,103L385,103L388,103L390,104L392,103L396,104L397,102L397,98L395,95L393,94L390,93L393,91L396,92L396,89L398,90L403,89L404,87L406,86L409,85L410,82L413,81L415,81L418,81L420,80L419,78L418,74L421,73L424,72L423,74L421,77L422,79L424,79L427,80L430,80L433,80L436,79L439,78L441,78L444,79L447,77L447,75L448,72L450,72L452,73L454,73L454,70L452,70L452,68L455,68L457,68L460,68L462,68L465,67L462,66L458,66L454,67L451,67L447,65L448,63L447,61L450,58L455,56L456,54L453,53L449,54L447,55L447,57L444,59L440,61L438,64L440,65L442,66L440,69L437,70L437,73L435,75L433,75L431,77L429,77L428,75L426,72L425,69L423,68L419,70L416,71L413,70L412,67L411,62L413,61L419,59L423,57L427,54L433,49L437,48L443,45L448,44L451,44L455,42L459,42L463,42L470,43L467,44L469,45L471,45L475,46L481,47L490,49L491,52L489,53L485,53L475,52L477,54L478,57L481,58L483,57L481,56L483,55L488,57L490,56L488,54L494,52L496,52L498,53L497,50L497,48L503,48L504,50L501,50L503,52L506,51L512,49L519,47L521,47L519,48L522,49L527,48L531,47L533,48L536,47L533,46L535,45L541,45L544,46L552,49L554,48L551,46L549,46L548,43L552,40L554,38L561,38L562,40L560,41L562,44L561,47L564,48L558,53L561,53L564,52L565,50L567,49L565,48L567,47L564,47L564,45L565,43L562,41L566,40L566,38L568,39L567,41L570,42L569,40L572,39L577,39L581,41L579,39L579,36L583,36L588,36L593,36L591,35L594,33L596,33L601,32L606,32L613,31L615,31L620,30L624,30L627,28L632,27L636,28L633,29L638,29ZM155,27L151,28L148,27L150,27L153,26L156,27ZM455,27L450,28L446,27L448,27L446,26L451,26L455,27ZM156,25L154,26L150,26L152,25L156,25ZM187,27L184,27L182,26L184,25L188,26ZM178,26L175,27L171,26L166,26L168,25L166,25L170,24L176,25L178,26ZM634,26L621,27L625,24L627,24L629,24L634,25ZM441,23L448,25L442,25L441,27L439,27L438,29L435,29L431,28L433,27L429,27L425,25L423,23L429,22L434,23L438,22L441,23ZM457,21L461,22L458,23L451,24L445,23L441,23L439,22L445,21L449,21L451,21L457,21ZM514,21L511,21L509,21L506,22L503,22L505,21L500,21L504,21L507,20L509,21L511,20L514,21ZM622,25L617,25L611,24L607,23L603,21L608,20L613,19L618,21L623,23L622,25ZM207,23L209,24L206,24L202,26L198,26L194,26L191,25L193,24L189,24L186,23L187,21L190,20L195,19L197,21L201,21L205,22L207,23ZM248,15L254,15L258,16L263,16L257,18L252,18L250,19L254,19L249,20L246,21L242,23L237,23L229,24L232,24L230,26L227,27L223,28L227,29L221,31L215,30L209,30L205,30L201,30L205,28L211,28L208,26L205,26L210,24L208,23L213,22L215,22L218,21L213,21L205,21L201,20L197,19L200,18L202,18L207,17L210,16L213,16L215,17L217,16L220,16L224,15L231,15L238,15L243,15L248,15ZM340,14L354,16L350,17L341,17L329,17L338,17L345,18L349,18L351,18L349,20L354,19L365,18L372,18L364,21L355,22L361,22L358,24L356,25L356,27L359,29L355,29L352,30L356,31L356,33L354,33L357,35L352,35L355,36L351,37L348,37L350,39L346,39L348,40L351,41L352,43L348,43L346,43L343,41L344,43L341,44L347,44L350,44L344,46L338,48L332,49L329,49L327,49L324,52L319,53L315,54L312,55L310,56L308,59L305,61L305,64L304,66L300,67L297,65L293,65L291,64L289,61L285,59L284,57L284,55L281,53L282,51L280,51L282,48L286,47L287,45L284,45L281,46L278,45L279,43L281,43L286,43L282,42L280,41L278,41L276,41L278,39L275,36L273,34L270,33L264,31L259,31L253,31L248,31L245,30L241,29L247,28L252,28L242,27L237,27L246,25L254,24L249,22L251,21L258,20L262,19L266,18L273,17L280,17L282,18L288,17L293,18L296,18L301,19L296,17L304,15L311,15L314,14L322,14L340,14Z"/></svg>